
Devon Ke Dev... Mahadev Episode of 16th August 2012






Provided by DesiRipper
Brought To You By JamMafia{TMRG} 



IMDB - http://www.imdb.com/title/tt2147999/

Devon Ke Dev... Mahadev (2011)
TV Series  -  Fantasy

Storyline
This is the story of Lord Shiva and Goddess Shakti. It is an elaborated narration of Shiv and Shakti's separation 

and union, their journeys together, and how that affected and shaped the world. The story presently narrates how 

Goddess Shakti's human incarnation Sati, grand daughter of Lord Brahma and daughter of Prajapati Daksha (a 

staunch devotee of Lord Vishnu) and Queen Prasuti is reunited with Shiva after Shakti was separated from him for 

the benefit of the universe. The show is presumed to follow with Sati's reincarnation as Goddess Parvati, daughter 

of mountain-king Himalaya and Queen Maina and younger sibling of Prince Mainak and Goddess Ganga. The show 

will then portray her union with her chosen lord Mahadev and how they came together never to be separated 

again. One of the most enchanting and intriguing tales of love, this story is credited as the first love story of the 

universe. Source: Wikipedia Written by Kaushik Agrawal.

Details:.


Complete name : MahaDev16th Aug Eng Subs~JamMafia.avi 
Format : AVI 
Format/Info : Audio Video Interleave 
File size : 88.5 MiB 
Duration : 25mn 48s 
Overall bit rate mode : Variable 
Overall bit rate : 480 Kbps 



ID : 0 
Format : MPEG-4 Visual 
Format profile : Advanced Simple@L5 
Format settings, BVOP : 1 
Format settings, QPel : No 
Format settings, GMC : No warppoints 
Format settings, Matrix : Default (H.263) 
Codec ID : XVID 
Codec ID/Hint : XviD 
Duration : 25mn 48s 
Bit rate : 340 Kbps 
Width : 320 pixels 
Height : 240 pixels 
Display aspect ratio : 4:3 
Frame rate : 25.000 fps 
Color space : YUV 
Chroma subsampling : 4:2:0 
Bit depth : 8 bits 
Scan type : Progressive 
Compression mode : Lossy 
Bits/(Pixel*Frame) : 0.177 
Stream size : 62.7 MiB (71%) 
Writing library : XviD 1.2.1 (UTC 2008-12-04 



ID : 1 
Format : MPEG Audio 
Format version : Version 1 
Format profile : Layer 3 
Mode : Joint stereo 
Mode extension : MS Stereo 
Codec ID : 55 
Codec ID/Hint : MP3 
Duration : 25mn 48s 
Bit rate mode : Variable 
Bit rate : 127 Kbps 
Minimum bit rate : 32.0 Kbps 
Channel(s) : 2 channels 
Sampling rate : 44.1 KHz 
Compression mode : Lossy 
Stream size : 23.5 MiB (27%) 
Alignment : Aligned on interleaves 
Interleave, duration : 26 ms (0.65 video frame) 
Interleave, preload duration : 216 ms 
Title : MahaDev16th Aug Eng Subs~JamMafia.wmv_track_1__audio 
Writing library : LAME3.99r 
Encoding settings : -m j -V 4 -q 0 -lowpass 17.5 --vbr-new -b 32 

Screenshots: 
http://img36.imageshack.us/img36/9206/mahadev16thaugengsubsja.jpg